{"title":"IMPACT.WRESTLING.2017.05.04.HDTV.XviD-FICEK9","magnet":"magnet:?xt=urn:btih:bad127ee27d1541f17c4c641b935cbe2ed3341b7&dn=IMPACT.WRESTLING.2017.05.04.HDTV.XviD-FICEK9&tr=udp%3A%2F%2Ftracker.leechers-paradise.org%3A6969&tr=udp%3A%2F%2Fzer0day.ch%3A1337&tr=udp%3A%2F%2Fopen.demonii.com%3A1337&tr=udp%3A%2F%2Ftracker.coppersurfer.tk%3A6969&tr=udp%3A%2F%2Fexodus.desync.com%3A6969","uploader":"FICEK9","categoryP":"video","categoryS":"tv_shows","size":"939011413","seeders":"0","leechers":"0","description":"\r\n   General\r\n      Complete name : IMPACT.WRESTLING.2017.05.04.HDTV.XviD-FICEK9.avi\r\n      Format : AVI\r\n      Format/Info : Audio Video Interleave\r\n      File size : 896 MiB\r\n      Duration : 1 h 23 min\r\n      Overall bit rate mode : Variable\r\n      Overall bit rate : 1 503 kb/s\r\n      Writing application : Lavf57.41.100\r\n   Video #0\r\n      ID : 0\r\n      Format : xvid\r\n      Codec ID : xvid\r\n      Duration : 1 h 23 min\r\n      Bit rate : 1 374 kb/s\r\n      Width : 624 pixels\r\n      Height : 352 pixels\r\n      Display aspect ratio : 16:9\r\n      Frame rate : 29.970 FPS\r\n      Scan type : Progressive\r\n      Bits/(Pixel*Frame) : 0.209\r\n      Stream size : 819 MiB (91%)\r\n   Audio #1\r\n      ID : 1\r\n      Format : MPEG Audio\r\n      Format version : Version 1\r\n      Format profile : Layer 3\r\n      Mode : Joint stereo\r\n      Mode extension : MS Stereo\r\n      Codec ID : 55\r\n      Codec ID/Hint : MP3\r\n      Duration : 1 h 23 min\r\n      Bit rate mode : Variable\r\n      Bit rate : 115 kb/s\r\n      Channel(s) : 2 channels\r\n      Sampling rate : 48.0 kHz\r\n      Compression mode : Lossy\r\n      Stream size : 68.4 MiB (8%)\r\n      Alignment : Aligned on interleaves\r\n      Interleave, duration : 24  ms (0.72 video frame)","last_updated":"2017-07-01T12:00:57.117Z","parsed":{"xt":"urn:btih:bad127ee27d1541f17c4c641b935cbe2ed3341b7","dn":"IMPACT.WRESTLING.2017.05.04.HDTV.XviD-FICEK9","tr":["udp://exodus.desync.com:6969","udp://open.demonii.com:1337","udp://tracker.coppersurfer.tk:6969","udp://tracker.leechers-paradise.org:6969","udp://zer0day.ch:1337"],"infoHash":"bad127ee27d1541f17c4c641b935cbe2ed3341b7","infoHashBuffer":{"type":"Buffer","data":[186,209,39,238,39,209,84,31,23,196,198,65,185,53,203,226,237,51,65,183]},"name":"IMPACT.WRESTLING.2017.05.04.HDTV.XviD-FICEK9","announce":["udp://exodus.desync.com:6969","udp://open.demonii.com:1337","udp://tracker.coppersurfer.tk:6969","udp://tracker.leechers-paradise.org:6969","udp://zer0day.ch:1337"],"urlList":[]}}